<?xml version="1.0" encoding="iso-8859-1"?>
<!-- Uploaded to: SVG Repo, www.svgrepo.com, Generator: SVG Repo Mixer Tools -->
<!DOCTYPE svg PUBLIC "-//W3C//DTD SVG 1.1//EN" "http://www.w3.org/Graphics/SVG/1.1/DTD/svg11.dtd">
<svg fill="#ffffff" version="1.1" id="Capa_1" xmlns="http://www.w3.org/2000/svg" xmlns:xlink="http://www.w3.org/1999/xlink" 
	 width="800px" height="800px" viewBox="0 0 444.731 444.731"
	 xml:space="preserve">
<g>
	<g>
		<path d="M144.05,318.396c5.278,0,13.32,2.037,17.949,4.581c13.76,7.554,41.865,23.112,83.949,46.445
			c10.213,5.67,20.158,8.549,29.559,8.549c24.834,0,40.879-19.632,40.879-50.013V114.257c0-29.29-14.018-47.497-36.596-47.497
			c-9.801,0-20.693,3.806-31.508,10.997l-87.134,57.891c-4.399,2.926-12.25,5.288-17.528,5.288H81.262
			C36.453,140.936,0,180.735,0,229.647c0,48.932,36.453,88.74,81.262,88.74h62.788V318.396z M147.961,155.28
			c5.278,0,13.129-2.372,17.528-5.297l90.739-60.301c8.462-5.613,16.61-8.587,23.571-8.587c13.934,0,22.252,12.393,22.252,33.153
			V327.94c0,22.003-10.164,35.668-26.535,35.668c-6.934,0-14.526-2.267-22.597-6.751c-95.271-52.813-95.271-52.813-97.557-52.813
			h-74.09c-36.902,0-66.918-33.373-66.918-74.396c0-41.004,30.017-74.368,66.918-74.368H147.961L147.961,155.28z"/>
		
	</g>
</g>
</svg>